<svg width="16" height="13" viewBox="0 0 16 13" fill="none" xmlns="http://www.w3.org/2000/svg">
<path fill-rule="evenodd" clip-rule="evenodd" d="M1.51199 0.25C1.17126 0.25 0.89505 0.526212 0.89505 0.866936C0.89505 1.20766 1.17126 1.48387 1.51199 1.48387L14.5844 1.48387C14.9252 1.48387 15.2014 1.20766 15.2014 0.866936C15.2014 0.526212 14.9252 0.250002 14.5844 0.250002L1.51199 0.25ZM5.79722 6.625C5.79722 6.28428 6.07343 6.00807 6.41415 6.00807L14.5844 6.00807C14.9252 6.00807 15.2014 6.28428 15.2014 6.625C15.2014 6.96573 14.9252 7.24194 14.5844 7.24194L6.41415 7.24194C6.07343 7.24194 5.79722 6.96573 5.79722 6.625ZM0.895048 12.3831C0.895048 12.0423 1.17126 11.7661 1.51198 11.7661L14.5844 11.7661C14.9252 11.7661 15.2014 12.0423 15.2014 12.3831C15.2014 12.7238 14.9252 13 14.5844 13L1.51198 13C1.17126 13 0.895048 12.7238 0.895048 12.3831Z" fill="#8285B4"/>
</svg>
